<!DOCTYPE svg PUBLIC "-//W3C//DTD SVG 20010904//EN" "http://www.w3.org/TR/2001/REC-SVG-20010904/DTD/svg10.dtd">
<svg version="1.0" xmlns="http://www.w3.org/2000/svg" width="650px" height="650px" viewBox="0 0 6500 6500" preserveAspectRatio="xMidYMid meet">
<g id="layer101" fill="#141414" stroke="none">
 <path d="M2885 6334 c-351 -42 -677 -139 -995 -294 -326 -161 -561 -329 -826 -594 -265 -265 -433 -500 -594 -826 -213 -436 -310 -859 -310 -1360 0 -501 97 -924 310 -1360 161 -326 329 -561 594 -826 265 -265 500 -433 826 -594 436 -213 859 -310 1360 -310 501 0 924 97 1360 310 326 161 561 329 826 594 265 265 433 500 594 826 213 436 310 859 310 1360 0 698 -201 1301 -623 1870 -137 185 -412 460 -597 597 -469 348 -957 543 -1520 607 -170 20 -548 19 -715 0z"/>
 </g>
<g id="layer102" fill="#ffffff" stroke="none">
 <path d="M1320 4414 c-127 -34 -208 -133 -210 -253 0 -88 9 -113 355 -956 41 -99 131 -319 200 -490 70 -170 142 -335 161 -366 40 -66 104 -128 166 -160 60 -32 195 -38 269 -14 69 23 140 89 169 158 12 29 24 54 26 56 2 2 36 -23 76 -55 201 -163 284 -204 464 -224 275 -30 516 81 653 303 12 20 25 37 27 37 3 0 42 -33 87 -73 101 -90 149 -123 254 -175 318 -160 693 -117 908 103 161 164 192 376 95 645 -21 58 -102 262 -179 454 -78 191 -141 350 -141 351 0 2 109 5 243 7 267 5 309 13 386 69 61 43 86 103 85 199 -2 159 -90 270 -264 332 -63 22 -78 23 -470 26 -434 4 -483 0 -578 -45 -66 -31 -141 -104 -172 -168 -22 -43 -25 -64 -25 -155 0 -131 4 -143 212 -650 85 -206 157 -395 160 -420 13 -107 -41 -188 -139 -210 -187 -42 -415 122 -548 395 -27 55 -117 269 -200 475 -222 551 -270 641 -391 732 -204 153 -481 84 -531 -132 -19 -81 2 -158 123 -455 61 -148 149 -364 196 -480 111 -273 123 -308 123 -370 0 -172 -234 -229 -423 -102 -74 50 -158 148 -211 248 -22 40 -130 294 -241 565 -111 272 -217 519 -236 550 -84 141 -205 233 -334 254 -74 12 -77 12 -145 -6z"/>
 </g>

</svg>